<?xml version="1.0" standalone="no"?>
<!DOCTYPE svg PUBLIC "-//W3C//DTD SVG 20010904//EN"
 "http://www.w3.org/TR/2001/REC-SVG-20010904/DTD/svg10.dtd">
<svg version="1.0" xmlns="http://www.w3.org/2000/svg"
 width="288.000000pt" height="288.000000pt" viewBox="0 0 288.000000 288.000000"
 preserveAspectRatio="xMidYMid meet">
<metadata>
Created by potrace 1.14, written by Peter Selinger 2001-2017
</metadata>
<g transform="translate(0.000000,288.000000) scale(0.100000,-0.100000)"
fill="#000000" stroke="none">
<path d="M678 2644 c-5 -4 2 -157 7 -162 2 -2 81 -21 177 -42 95 -21 196 -46
223 -55 119 -41 220 -108 275 -185 l32 -45 -6 59 c-22 200 -164 302 -551 396
-72 17 -135 33 -142 35 -6 2 -13 2 -15 -1z"/>
<path d="M2189 2645 c-3 -2 -16 -6 -29 -8 -56 -11 -273 -68 -332 -87 -88 -30
-125 -48 -184 -91 -93 -68 -139 -143 -149 -244 -6 -54 -5 -58 8 -37 27 46 102
114 164 149 80 44 159 72 283 98 3 1 30 7 60 13 30 7 64 14 75 16 11 2 41 10
68 16 46 12 47 13 48 54 0 22 2 58 3 79 2 35 -5 53 -15 42z"/>
<path d="M359 2472 c0 -9 -2 -50 -3 -90 -2 -40 -1 -74 3 -76 3 -3 105 -30 226
-61 433 -113 560 -146 577 -150 9 -2 60 -15 113 -29 53 -14 101 -26 107 -26
26 0 -94 130 -169 181 -78 54 -226 110 -353 134 -39 7 -60 12 -133 29 -37 9
-80 18 -95 21 -42 7 -198 53 -238 70 -31 13 -34 12 -35 -3z"/>
<path d="M2467 2468 c-48 -18 -180 -55 -227 -64 -14 -2 -52 -11 -85 -19 -33
-8 -117 -28 -187 -44 -187 -44 -290 -96 -390 -194 -52 -52 -94 -107 -81 -107
12 0 1015 260 1023 265 7 4 5 174 -2 179 -2 1 -25 -6 -51 -16z"/>
<path d="M147 2255 c-11 -10 -15 -27 -13 -48 2 -18 7 -77 11 -132 4 -55 9
-102 10 -105 2 -3 6 -48 10 -100 3 -52 8 -106 10 -120 4 -25 10 -94 20 -210 3
-36 7 -81 10 -100 2 -19 7 -69 10 -110 4 -41 8 -91 10 -110 1 -19 6 -71 10
-115 4 -44 9 -91 10 -105 3 -34 14 -152 21 -230 11 -126 13 -141 26 -167 7
-14 24 -34 38 -44 14 -10 158 -57 320 -104 162 -47 324 -94 360 -105 36 -11
135 -41 220 -66 105 -32 173 -47 210 -47 41 1 177 37 535 142 264 78 487 144
495 146 33 7 76 27 94 43 24 23 34 49 41 119 3 32 8 74 10 93 2 19 7 71 11
115 4 44 8 91 9 105 2 14 6 59 9 100 4 41 9 98 11 125 3 28 7 77 10 110 3 33
8 83 11 110 10 102 13 142 19 205 3 36 8 83 10 105 2 22 7 74 10 115 4 41 8
89 10 105 1 17 6 66 9 110 4 44 9 95 12 113 5 41 -10 72 -37 72 -11 0 -57 -9
-102 -21 -45 -11 -89 -23 -97 -25 -8 -2 -60 -15 -115 -29 -55 -14 -107 -28
-115 -30 -8 -2 -82 -21 -165 -43 -402 -106 -584 -152 -630 -161 -63 -12 -93
-6 -600 129 -38 10 -140 37 -225 59 -85 22 -216 56 -290 76 -180 48 -202 51
-223 30z m2017 -565 c-3 -77 -2 -140 3 -140 7 1 118 25 153 34 8 2 28 7 43 11
l28 7 -3 -88 -3 -88 -50 -13 c-27 -7 -61 -14 -75 -17 -14 -2 -43 -9 -65 -15
l-41 -11 -3 -137 c-2 -76 -5 -174 -6 -218 -2 -44 -3 -101 -4 -127 l-1 -47 -52
-15 c-29 -8 -68 -18 -86 -21 l-34 -7 7 258 c4 143 9 262 12 267 6 10 -15 9
-61 -4 -21 -6 -47 -13 -57 -15 -50 -11 -66 -14 -94 -20 l-30 -5 -1 85 c-1 47
2 87 7 87 11 2 7 1 124 28 55 14 103 27 107 30 4 3 8 66 10 139 2 74 8 137 13
142 13 10 112 38 142 39 21 1 22 0 17 -139z"/>
</g>
</svg>
